# xmcd
#
# Track frame offsets:
#	150
#	10670
#	21975
#	33000
#	42348
#	54667
#	63293
#	76681
#	90781
#	102814
#	111853
#	123147
#	135822
#	146097
#	157532
#	168374
#	177445
#	187383
#	198783
#	208187
#	223862
#	233432
#	240707
#	251627
#	262052
#	272776
#	283201
#	295063
#	308712
#	322662
#	332299
#
# Disc length: 4627 seconds
#
# Revision: 0
# Processed by: cddbd v1.5.2PL0 Copyright (c) Steve Scherf et al.
# Submitted via: audiograbber 1.83.01
#
DISCID=a212111f
DTITLE=Various Artist Glitterhouse - Spoonful Vol. 36: Do The Crazy Mambo
DYEAR=2010
DGENRE=
TTITLE0=Rose Mitchell - Baby Please Don't Go
TTITLE1=Dave Bartholomew - Oh Cubanas
TTITLE2=Bobby Williams - So Blue
TTITLE3=Camille Howard - You're Lower Than A Mole
TTITLE4=Louis Jordan - Junco Partner
TTITLE5=Mamie Perry - Lament
TTITLE6=Andre Williams - Going Down To Tia Juana
TTITLE7=Jimmy Nolen - Jimmy's Jive
TTITLE8=Dickie Thompson - Thirteen Women And One Man
TTITLE9=Link Wray and The Raymen - Hound Dog
TTITLE10=Cleave Jackson - Hound Dog
TTITLE11=Rufus Thomas - Bear Cat
TTITLE12=Chuck Berry - Club Nitty Gritty
TTITLE13=Shirley Ellis - That's What The Nitty Gritty Is
TTITLE14=Rollee Mcgill - Helena Mambo
TTITLE15=Joe Houston - I Woke Up This Morning
TTITLE16=The Fugitivees - Jump Back
TTITLE17=Roy Brown - Mr. Hound Dog Is In Town
TTITLE18=Classie Ballou - Classie's Whip
TTITLE19=The Kinks - Got Love If You Want It
TTITLE20=Jennell Hawkins - Money, That's What I Want
TTITLE21=Johnny Duke and The Volcanoes - Oh Oh Mojo
TTITLE22=King Curtis - What'd I Say (Part 1)
TTITLE23=Classie Ballou - Crazy Mambo
TTITLE24=Albert Washington - Ramble
TTITLE25=Silas Hogan - Just Give Me A Chance
TTITLE26=Dee Dee Sharp - Comin Home Bab
TTITLE27=The Surfin Gorillas - Go Go Gorilla
TTITLE28=Emmet Davis - I Woke Up This Morning
TTITLE29=Perez Prado - Mambo No.5
TTITLE30=King Curtis - What'd I Say (Part 2)
EXTD=
EXTT0=
EXTT1=
EXTT2=
EXTT3=
EXTT4=
EXTT5=
EXTT6=
EXTT7=
EXTT8=
EXTT9=
EXTT10=
EXTT11=
EXTT12=
EXTT13=
EXTT14=
EXTT15=
EXTT16=
EXTT17=
EXTT18=
EXTT19=
EXTT20=
EXTT21=
EXTT22=
EXTT23=
EXTT24=
EXTT25=
EXTT26=
EXTT27=
EXTT28=
EXTT29=
EXTT30=
PLAYORDER=
